<?xml version="1.0" standalone="no"?>
<!DOCTYPE svg PUBLIC "-//W3C//DTD SVG 20010904//EN"
 "http://www.w3.org/TR/2001/REC-SVG-20010904/DTD/svg10.dtd">
<svg version="1.0" xmlns="http://www.w3.org/2000/svg"
 width="400.000000pt" height="400.000000pt" viewBox="0 0 400.000000 400.000000"
 preserveAspectRatio="xMidYMid meet">
<metadata>
Created by potrace 1.14, written by Peter Selinger 2001-2017
</metadata>
<g transform="translate(0.000000,400.000000) scale(0.100000,-0.100000)"
fill="#000000" stroke="none">
<path d="M1829 3946 c-2 -2 -29 -6 -59 -10 -145 -16 -248 -39 -394 -88 -673
-225 -1179 -807 -1306 -1503 -34 -186 -34 -498 -1 -680 65 -358 205 -659 438
-936 303 -360 737 -600 1213 -670 137 -21 472 -17 591 6 13 3 40 8 59 11 156
28 402 115 547 195 87 47 272 172 329 220 309 267 520 592 629 969 15 52 29
106 31 120 2 14 7 36 10 48 2 13 7 43 10 65 3 23 8 49 11 57 3 8 6 98 8 200 6
340 -51 606 -189 891 -161 331 -375 577 -684 783 -248 165 -497 259 -827 311
-45 7 -409 17 -416 11z"/>
</g>
</svg>
